<?xml version="1.0" encoding="utf-8"?>
<!-- Generator: Adobe Illustrator 22.1.0, SVG Export Plug-In . SVG Version: 6.00 Build 0)  -->
<svg version="1.1" baseProfile="tiny" xmlns="http://www.w3.org/2000/svg" xmlns:xlink="http://www.w3.org/1999/xlink" x="0px"
	 y="0px" viewBox="0 0 593 87" xml:space="preserve">
<g id="Layer_1">
	<image display="none" width="404" height="87" xlink:href="logo.svg"  transform="matrix(1 0 0 1 94.5 0)">
	</image>
	<image display="none" width="404" height="87" xlink:href="logo.svg"  transform="matrix(1.6192 0 0 1.6192 -15.1245 17.04)">
	</image>
	<rect x="-0.8" y="0.5" fill="#EFEBD8" width="595" height="86.8"/>
</g>
<g id="Layer_2">
	
		<line fill="none" stroke="#134921" stroke-width="1.1173" stroke-linejoin="round" stroke-miterlimit="10" x1="528.1" y1="26.3" x2="544.8" y2="29.1"/>
	
		<line fill="none" stroke="#134921" stroke-width="1.1173" stroke-linejoin="round" stroke-miterlimit="10" x1="528.5" y1="26.3" x2="528.5" y2="75.7"/>
	
		<line fill="none" stroke="#134921" stroke-width="1.1173" stroke-linejoin="round" stroke-miterlimit="10" x1="438.5" y1="60.9" x2="361.4" y2="31.5"/>
	<line fill="none" stroke="#134921" stroke-linejoin="round" stroke-miterlimit="10" x1="528.4" y1="26.3" x2="438.4" y2="30.8"/>
	
		<line fill="none" stroke="#134921" stroke-width="1.1173" stroke-linejoin="round" stroke-miterlimit="10" x1="438.4" y1="30.3" x2="438.4" y2="60.6"/>
	
		<rect x="505.6" y="31.6" fill="none" stroke="#134921" stroke-linejoin="round" stroke-miterlimit="10" width="1.7" height="17.2"/>
	<line fill="none" stroke="#134921" stroke-linejoin="round" stroke-miterlimit="10" x1="438.4" y1="32.6" x2="363.2" y2="32.7"/>
	<line fill="none" stroke="#134921" stroke-linejoin="round" stroke-miterlimit="10" x1="382.9" y1="39.8" x2="438.4" y2="37.1"/>
	<polygon fill="#134921" points="175.3,45.3 214.5,41.6 214.5,65 214.4,65.6 175.3,65 175.3,44.3 	"/>
	<path fill="#134921" d="M217.8,65c0-0.8,0.1-1.6,0.1-2.4c0-7.3-0.1-14.6-0.1-21.8l29.6-1.8V14.5l52.2,11.7l18,21.7v18.1h-60.7v1.7
		h-8V65H217.8z"/>
	<polyline fill-rule="evenodd" fill="#134921" points="317.5,10.9 317.5,66 351.8,66 351.8,61.5 441.8,61.5 361.7,31.6 361.7,20 
		317.5,10.9 	"/>
	<polygon fill="#134921" points="428.5,56 438.3,55.1 438.3,60.5 427,56 	"/>
	<polyline fill-rule="evenodd" fill="#134921" points="393.1,43.5 438.4,40.6 438.4,47.2 438.2,46.9 408.2,48.9 393.1,43.5 	"/>
	<polygon fill="#134921" points="528.5,26.3 544.8,29.1 544.8,75.9 538.3,74.2 536.7,73.2 535.4,73.7 533.3,73.2 533.3,70.6 
		528.5,70.6 	"/>
	<line fill="none" stroke="#134921" stroke-linejoin="round" stroke-miterlimit="10" x1="480.1" y1="60.9" x2="404.8" y2="61"/>
	
		<line fill="none" stroke="#134921" stroke-width="1.1173" stroke-linejoin="round" stroke-miterlimit="10" x1="392.9" y1="65.4" x2="317.6" y2="65.5"/>
	<rect x="330" y="34.9" fill="#FFFFFF" width="2.4" height="25.6"/>
	<rect x="344.6" y="34.9" fill="#FFFFFF" width="2.4" height="25.5"/>
	<rect x="351.8" y="34.8" fill="#FFFFFF" width="2.6" height="25.5"/>
	<rect x="337.5" y="34.9" fill="#FFFFFF" width="2.2" height="25.5"/>
	<line fill="none" stroke="#134921" stroke-linejoin="round" stroke-miterlimit="10" x1="214.5" y1="23.5" x2="214.5" y2="67.8"/>
	<line fill="none" stroke="#134921" stroke-linejoin="round" stroke-miterlimit="10" x1="217.9" y1="23.5" x2="217.9" y2="67.8"/>
	<line fill="none" stroke="#134921" stroke-linejoin="round" stroke-miterlimit="10" x1="214" y1="23.5" x2="218.3" y2="23.5"/>
	<line fill="none" stroke="#134921" stroke-linejoin="round" stroke-miterlimit="10" x1="252.1" y1="16.2" x2="317.6" y2="11.5"/>
	<path fill="none" stroke="#134921" stroke-linecap="round" stroke-miterlimit="8" d="M69.3,76c0-29.9,0-44.8,0-44.8
		S69.3,76,69.3,76z"/>
	<rect x="72.4" y="37.1" fill="none" stroke="#134921" stroke-linecap="round" stroke-miterlimit="8" width="3.4" height="20.8"/>
	<rect x="79.7" y="35.8" fill="none" stroke="#134921" stroke-linecap="round" stroke-miterlimit="8" width="3.4" height="30.7"/>
	<line fill="none" stroke="#134921" stroke-linejoin="round" stroke-miterlimit="10" x1="68.9" y1="31.7" x2="247.5" y2="15.1"/>
	
		<line fill="none" stroke="#134921" stroke-width="1.1173" stroke-linejoin="round" stroke-miterlimit="10" x1="392.3" y1="65.3" x2="392.3" y2="68.9"/>
	<line fill="none" stroke="#134921" stroke-linejoin="round" stroke-miterlimit="10" x1="479.5" y1="60.9" x2="479.5" y2="64.4"/>
	<g id="cross">
		
			<line fill="none" stroke="#134921" stroke-width="1.1173" stroke-linejoin="round" stroke-miterlimit="10" x1="333.8" y1="14.5" x2="333.9" y2="1"/>
		
			<line fill="none" stroke="#134921" stroke-width="1.1173" stroke-linejoin="round" stroke-miterlimit="10" x1="328.8" y1="3.7" x2="338.7" y2="6.9"/>
	</g>
	<rect x="129.4" y="65.3" fill="none" stroke="#134921" stroke-linecap="round" stroke-miterlimit="8" width="85.1" height="3.4"/>
	<rect x="184.6" y="69.1" fill="#BFC7A9" width="30.4" height="3.4"/>
	<path fill="none" stroke="#134921" stroke-linecap="round" stroke-miterlimit="8" d="M70,85.5c6.3-6.3,9.5-9.5,9.5-9.5
		S70,85.5,70,85.5z"/>
	
		<rect x="79.3" y="72.8" fill="#BFC7A9" stroke="#134921" stroke-linecap="round" stroke-miterlimit="8" width="135.2" height="3.4"/>
	<rect x="249.5" y="67.3" fill="none" stroke="#134921" stroke-linecap="round" stroke-miterlimit="8" width="6.9" height="10.4"/>
	
		<line fill="none" stroke="#134921" stroke-width="1.1173" stroke-linejoin="round" stroke-miterlimit="10" x1="230.9" y1="68" x2="217.3" y2="68.1"/>
	
		<line fill="none" stroke="#134921" stroke-width="1.1173" stroke-linejoin="round" stroke-miterlimit="10" x1="230.4" y1="67.9" x2="230.4" y2="71.4"/>
	<path fill="none" stroke="#134921" stroke-linejoin="round" stroke-miterlimit="10" d="M-1,86.1c1.7-1.5,4-3.1,7-4.5
		c11-4.9,22.6-2.1,25.7-1.2c9.7,3.3,17.8,4.4,23.4,4.8c3.7,0.3,2.9,0,21.3,0.1c10.4,0.1,11.5,0.2,14.8-0.1c10-1.1,14.9-4.1,34.5-4.3
		c34.7-0.3,37.6,9,59.7,4.2c12.5-2.7,19.6-7.5,35.8-7.4c9.9,0,12.1,1.4,21.4,2.6c21.3,2.8,27.4-7.3,48-8.7
		c28.5-1.9,33.6,16.2,60.1,12.8c3.5-0.4,6.6-1.4,6.6-1.4c4.9-2.2,11.7-5.3,20.1-8.5c9.5-3.7,14.2-5.5,19.7-6.7
		c5-1.1,15-3.2,27.1-1.3c6.5,1,5.1,1.8,20.4,6.3c19.6,5.8,25.1,5.4,28,5c1.7-0.2,6.2-1.8,15.3-4.8c15.9-5.4,18.1-6.8,22.8-6.3
		c7.5,0.7,7.9,5,16.5,8.5c13.3,5.5,21-1.2,36.9,0.3c7,0.7,16.9,3,28.4,11"/>
</g>
</svg>
