<?xml version="1.0" encoding="UTF-8"?>
<svg xmlns="http://www.w3.org/2000/svg" xmlns:xlink="http://www.w3.org/1999/xlink" width="229px" height="34px" viewBox="0 0 231 34" version="1.1">
<g id="surface1">
<path style=" stroke:none;fill-rule:nonzero;fill:rgb(93.725491%,92.156863%,84.705883%);fill-opacity:1;" d="M -0.3125 0.195312 L 231.46875 0.195312 L 231.46875 34.117188 L -0.3125 34.117188 Z M -0.3125 0.195312 "/>
<path style="fill:none;stroke-width:1.1173;stroke-linecap:butt;stroke-linejoin:round;stroke:rgb(7.450981%,28.627452%,12.941177%);stroke-opacity:1;stroke-miterlimit:10;" d="M 528.100514 26.297909 L 544.796689 29.096622 " transform="matrix(0.389545,0,0,0.390805,0,0)"/>
<path style="fill:none;stroke-width:1.1173;stroke-linecap:butt;stroke-linejoin:round;stroke:rgb(7.450981%,28.627452%,12.941177%);stroke-opacity:1;stroke-miterlimit:10;" d="M 528.501623 26.297909 L 528.501623 75.695198 " transform="matrix(0.389545,0,0,0.390805,0,0)"/>
<path style="fill:none;stroke-width:1.1173;stroke-linecap:butt;stroke-linejoin:round;stroke:rgb(7.450981%,28.627452%,12.941177%);stroke-opacity:1;stroke-miterlimit:10;" d="M 438.502723 60.901999 L 361.399486 31.495519 " transform="matrix(0.389545,0,0,0.390805,0,0)"/>
<path style="fill:none;stroke-width:1;stroke-linecap:butt;stroke-linejoin:round;stroke:rgb(7.450981%,28.627452%,12.941177%);stroke-opacity:1;stroke-miterlimit:10;" d="M 528.401346 26.297909 L 438.402445 30.795841 " transform="matrix(0.389545,0,0,0.390805,0,0)"/>
<path style="fill:none;stroke-width:1.1173;stroke-linecap:butt;stroke-linejoin:round;stroke:rgb(7.450981%,28.627452%,12.941177%);stroke-opacity:1;stroke-miterlimit:10;" d="M 438.402445 30.296071 L 438.402445 60.602137 " transform="matrix(0.389545,0,0,0.390805,0,0)"/>
<path style="fill:none;stroke-width:1;stroke-linecap:butt;stroke-linejoin:round;stroke:rgb(7.450981%,28.627452%,12.941177%);stroke-opacity:1;stroke-miterlimit:10;" d="M 505.598282 31.595473 L 507.302996 31.595473 L 507.302996 48.797564 L 505.598282 48.797564 Z M 505.598282 31.595473 " transform="matrix(0.389545,0,0,0.390805,0,0)"/>
<path style="fill:none;stroke-width:1;stroke-linecap:butt;stroke-linejoin:round;stroke:rgb(7.450981%,28.627452%,12.941177%);stroke-opacity:1;stroke-miterlimit:10;" d="M 438.402445 32.595014 L 363.204478 32.704963 " transform="matrix(0.389545,0,0,0.390805,0,0)"/>
<path style="fill:none;stroke-width:1;stroke-linecap:butt;stroke-linejoin:round;stroke:rgb(7.450981%,28.627452%,12.941177%);stroke-opacity:1;stroke-miterlimit:10;" d="M 382.898945 39.8017 L 438.402445 37.102941 " transform="matrix(0.389545,0,0,0.390805,0,0)"/>
<path style=" stroke:none;fill-rule:nonzero;fill:rgb(7.450981%,28.627452%,12.941177%);fill-opacity:1;" d="M 68.289062 17.703125 L 83.558594 16.257812 L 83.558594 25.402344 L 83.519531 25.636719 L 68.289062 25.402344 L 68.289062 17.3125 Z M 68.289062 17.703125 "/>
<path style=" stroke:none;fill-rule:nonzero;fill:rgb(7.450981%,28.627452%,12.941177%);fill-opacity:1;" d="M 84.84375 25.402344 C 84.84375 25.089844 84.882812 24.777344 84.882812 24.464844 C 84.882812 21.613281 84.84375 18.757812 84.84375 15.945312 L 96.375 15.242188 L 96.375 5.667969 L 116.707031 10.238281 L 123.71875 18.71875 L 123.71875 25.792969 L 100.074219 25.792969 L 100.074219 26.457031 L 96.957031 26.457031 L 96.957031 25.402344 Z M 84.84375 25.402344 "/>
<path style=" stroke:none;fill-rule:evenodd;fill:rgb(7.450981%,28.627452%,12.941177%);fill-opacity:1;" d="M 123.679688 4.261719 L 123.679688 25.792969 L 137.042969 25.792969 L 137.042969 24.035156 L 172.101562 24.035156 L 140.898438 12.347656 L 140.898438 7.816406 L 123.679688 4.261719 "/>
<path style=" stroke:none;fill-rule:nonzero;fill:rgb(7.450981%,28.627452%,12.941177%);fill-opacity:1;" d="M 166.917969 21.886719 L 170.738281 21.535156 L 170.738281 23.644531 L 166.335938 21.886719 Z M 166.917969 21.886719 "/>
<path style=" stroke:none;fill-rule:evenodd;fill:rgb(7.450981%,28.627452%,12.941177%);fill-opacity:1;" d="M 153.128906 17 L 170.777344 15.867188 L 170.777344 18.445312 L 170.699219 18.328125 L 159.011719 19.109375 L 153.128906 17 "/>
<path style=" stroke:none;fill-rule:nonzero;fill:rgb(7.450981%,28.627452%,12.941177%);fill-opacity:1;" d="M 205.875 10.277344 L 212.222656 11.371094 L 212.222656 29.660156 L 209.691406 28.996094 L 209.070312 28.605469 L 208.5625 28.800781 L 207.746094 28.605469 L 207.746094 27.589844 L 205.875 27.589844 Z M 205.875 10.277344 "/>
<path style="fill:none;stroke-width:1;stroke-linecap:butt;stroke-linejoin:round;stroke:rgb(7.450981%,28.627452%,12.941177%);stroke-opacity:1;stroke-miterlimit:10;" d="M 480.097758 60.901999 L 404.799513 61.001953 " transform="matrix(0.389545,0,0,0.390805,0,0)"/>
<path style="fill:none;stroke-width:1.1173;stroke-linecap:butt;stroke-linejoin:round;stroke:rgb(7.450981%,28.627452%,12.941177%);stroke-opacity:1;stroke-miterlimit:10;" d="M 392.896594 65.399931 L 317.59835 65.499885 " transform="matrix(0.389545,0,0,0.390805,0,0)"/>
<path style=" stroke:none;fill-rule:nonzero;fill:rgb(100%,100%,100%);fill-opacity:1;" d="M 128.550781 13.640625 L 129.484375 13.640625 L 129.484375 23.644531 L 128.550781 23.644531 Z M 128.550781 13.640625 "/>
<path style=" stroke:none;fill-rule:nonzero;fill:rgb(100%,100%,100%);fill-opacity:1;" d="M 134.238281 13.640625 L 135.171875 13.640625 L 135.171875 23.605469 L 134.238281 23.605469 Z M 134.238281 13.640625 "/>
<path style=" stroke:none;fill-rule:nonzero;fill:rgb(100%,100%,100%);fill-opacity:1;" d="M 137.042969 13.601562 L 138.054688 13.601562 L 138.054688 23.566406 L 137.042969 23.566406 Z M 137.042969 13.601562 "/>
<path style=" stroke:none;fill-rule:nonzero;fill:rgb(100%,100%,100%);fill-opacity:1;" d="M 131.472656 13.640625 L 132.328125 13.640625 L 132.328125 23.605469 L 131.472656 23.605469 Z M 131.472656 13.640625 "/>
<path style="fill:none;stroke-width:1;stroke-linecap:butt;stroke-linejoin:round;stroke:rgb(7.450981%,28.627452%,12.941177%);stroke-opacity:1;stroke-miterlimit:10;" d="M 214.50323 23.499196 L 214.50323 67.798828 " transform="matrix(0.389545,0,0,0.390805,0,0)"/>
<path style="fill:none;stroke-width:1;stroke-linecap:butt;stroke-linejoin:round;stroke:rgb(7.450981%,28.627452%,12.941177%);stroke-opacity:1;stroke-miterlimit:10;" d="M 217.902631 23.499196 L 217.902631 67.798828 " transform="matrix(0.389545,0,0,0.390805,0,0)"/>
<path style="fill:none;stroke-width:1;stroke-linecap:butt;stroke-linejoin:round;stroke:rgb(7.450981%,28.627452%,12.941177%);stroke-opacity:1;stroke-miterlimit:10;" d="M 214.001843 23.499196 L 218.303741 23.499196 " transform="matrix(0.389545,0,0,0.390805,0,0)"/>
<path style="fill:none;stroke-width:1;stroke-linecap:butt;stroke-linejoin:round;stroke:rgb(7.450981%,28.627452%,12.941177%);stroke-opacity:1;stroke-miterlimit:10;" d="M 252.0972 16.202551 L 317.59835 11.50471 " transform="matrix(0.389545,0,0,0.390805,0,0)"/>
<path style="fill:none;stroke-width:1;stroke-linecap:round;stroke-linejoin:miter;stroke:rgb(7.450981%,28.627452%,12.941177%);stroke-opacity:1;stroke-miterlimit:8;" d="M 69.301661 75.99506 C 69.301661 46.098805 69.301661 31.195657 69.301661 31.195657 C 69.301661 31.195657 69.301661 75.99506 69.301661 75.99506 Z M 69.301661 75.99506 " transform="matrix(0.389545,0,0,0.390805,0,0)"/>
<path style="fill:none;stroke-width:1;stroke-linecap:round;stroke-linejoin:miter;stroke:rgb(7.450981%,28.627452%,12.941177%);stroke-opacity:1;stroke-miterlimit:8;" d="M 72.40023 37.102941 L 75.799631 37.102941 L 75.799631 57.903378 L 72.40023 57.903378 Z M 72.40023 37.102941 " transform="matrix(0.389545,0,0,0.390805,0,0)"/>
<path style="fill:none;stroke-width:1;stroke-linecap:round;stroke-linejoin:miter;stroke:rgb(7.450981%,28.627452%,12.941177%);stroke-opacity:1;stroke-miterlimit:8;" d="M 79.700419 35.803539 L 83.099821 35.803539 L 83.099821 66.499426 L 79.700419 66.499426 Z M 79.700419 35.803539 " transform="matrix(0.389545,0,0,0.390805,0,0)"/>
<path style="fill:none;stroke-width:1;stroke-linecap:butt;stroke-linejoin:round;stroke:rgb(7.450981%,28.627452%,12.941177%);stroke-opacity:1;stroke-miterlimit:10;" d="M 68.900551 31.695427 L 247.504498 15.103056 " transform="matrix(0.389545,0,0,0.390805,0,0)"/>
<path style="fill:none;stroke-width:1.1173;stroke-linecap:butt;stroke-linejoin:round;stroke:rgb(7.450981%,28.627452%,12.941177%);stroke-opacity:1;stroke-miterlimit:10;" d="M 392.304958 65.299977 L 392.304958 68.898323 " transform="matrix(0.389545,0,0,0.390805,0,0)"/>
<path style="fill:none;stroke-width:1;stroke-linecap:butt;stroke-linejoin:round;stroke:rgb(7.450981%,28.627452%,12.941177%);stroke-opacity:1;stroke-miterlimit:10;" d="M 479.496094 60.901999 L 479.496094 64.400391 " transform="matrix(0.389545,0,0,0.390805,0,0)"/>
<path style="fill:none;stroke-width:1.1173;stroke-linecap:butt;stroke-linejoin:round;stroke:rgb(7.450981%,28.627452%,12.941177%);stroke-opacity:1;stroke-miterlimit:10;" d="M 333.803166 14.503332 L 333.903443 0.99954 " transform="matrix(0.389545,0,0,0.390805,0,0)"/>
<path style="fill:none;stroke-width:1.1173;stroke-linecap:butt;stroke-linejoin:round;stroke:rgb(7.450981%,28.627452%,12.941177%);stroke-opacity:1;stroke-miterlimit:10;" d="M 328.799327 3.6983 L 338.696699 6.896829 " transform="matrix(0.389545,0,0,0.390805,0,0)"/>
<path style="fill:none;stroke-width:1;stroke-linecap:round;stroke-linejoin:miter;stroke:rgb(7.450981%,28.627452%,12.941177%);stroke-opacity:1;stroke-miterlimit:8;" d="M 129.397863 65.299977 L 214.50323 65.299977 L 214.50323 68.698415 L 129.397863 68.698415 Z M 129.397863 65.299977 " transform="matrix(0.389545,0,0,0.390805,0,0)"/>
<path style=" stroke:none;fill-rule:nonzero;fill:rgb(74.901962%,78.039217%,66.274512%);fill-opacity:1;" d="M 71.910156 27.003906 L 83.753906 27.003906 L 83.753906 28.332031 L 71.910156 28.332031 Z M 71.910156 27.003906 "/>
<path style="fill:none;stroke-width:1;stroke-linecap:round;stroke-linejoin:miter;stroke:rgb(7.450981%,28.627452%,12.941177%);stroke-opacity:1;stroke-miterlimit:8;" d="M 70.003602 85.500689 C 76.301018 79.203585 79.499865 75.99506 79.499865 75.99506 C 79.499865 75.99506 70.003602 85.500689 70.003602 85.500689 Z M 70.003602 85.500689 " transform="matrix(0.389545,0,0,0.390805,0,0)"/>
<path style="fill-rule:nonzero;fill:rgb(74.901962%,78.039217%,66.274512%);fill-opacity:1;stroke-width:1;stroke-linecap:round;stroke-linejoin:miter;stroke:rgb(7.450981%,28.627452%,12.941177%);stroke-opacity:1;stroke-miterlimit:8;" d="M 79.29931 72.79653 L 214.50323 72.79653 L 214.50323 76.204963 L 79.29931 76.204963 Z M 79.29931 72.79653 " transform="matrix(0.389545,0,0,0.390805,0,0)"/>
<path style="fill:none;stroke-width:1;stroke-linecap:round;stroke-linejoin:miter;stroke:rgb(7.450981%,28.627452%,12.941177%);stroke-opacity:1;stroke-miterlimit:8;" d="M 249.500017 67.299058 L 256.399097 67.299058 L 256.399097 77.704274 L 249.500017 77.704274 Z M 249.500017 67.299058 " transform="matrix(0.389545,0,0,0.390805,0,0)"/>
<path style="fill:none;stroke-width:1.1173;stroke-linecap:butt;stroke-linejoin:round;stroke:rgb(7.450981%,28.627452%,12.941177%);stroke-opacity:1;stroke-miterlimit:10;" d="M 230.898573 67.998736 L 217.300967 68.09869 " transform="matrix(0.389545,0,0,0.390805,0,0)"/>
<path style="fill:none;stroke-width:1.1173;stroke-linecap:butt;stroke-linejoin:round;stroke:rgb(7.450981%,28.627452%,12.941177%);stroke-opacity:1;stroke-miterlimit:10;" d="M 230.397186 67.898782 L 230.397186 71.397174 " transform="matrix(0.389545,0,0,0.390805,0,0)"/>
<path style="fill:none;stroke-width:1;stroke-linecap:butt;stroke-linejoin:round;stroke:rgb(7.450981%,28.627452%,12.941177%);stroke-opacity:1;stroke-miterlimit:10;" d="M -1.002773 86.100414 C 0.701941 84.601103 2.998292 83.001838 5.996584 81.602482 C 16.997007 76.704733 28.599094 79.503447 31.697663 80.403033 C 41.404508 83.701517 49.496889 84.801011 55.102391 85.200827 C 58.802624 85.500689 58.000406 85.200827 76.401295 85.300781 C 86.800054 85.400735 87.903105 85.500689 91.202229 85.200827 C 101.199878 84.101333 106.10344 81.102711 125.697629 80.902803 C 160.403612 80.602941 163.301627 89.898667 185.40275 85.100873 C 197.897305 82.402114 204.996939 77.60432 221.201755 77.704274 C 231.099127 77.704274 233.295201 79.103631 242.600937 80.303079 C 263.899841 83.101792 269.996703 72.996438 290.603693 71.597082 C 319.102509 69.697955 324.196598 87.799632 350.699895 84.401195 C 354.199574 84.001379 357.298143 83.001838 357.298143 83.001838 C 362.201705 80.802849 369.000507 77.704274 377.403747 74.495749 C 386.90001 70.797449 391.603017 68.998277 397.098214 67.798828 C 402.102053 66.699334 412.099702 64.600299 424.203176 66.499426 C 430.701147 67.498966 429.297264 68.298598 444.599584 72.79653 C 464.203801 78.60386 469.698999 78.204044 472.597014 77.804228 C 474.301728 77.60432 478.80418 75.99506 487.899334 72.996438 C 503.803318 67.59892 505.999391 66.199563 510.702398 66.699334 C 518.203142 67.399012 518.604251 71.697036 527.198018 75.195427 C 540.504819 80.702895 548.19609 73.995979 564.100074 75.49529 C 571.099432 76.204963 580.996804 78.503906 592.498613 86.50023 " transform="matrix(0.389545,0,0,0.390805,0,0)"/>
</g>
</svg>
